<svg width="100" height="100" viewBox="0 0 100 100" fill="none" xmlns="http://www.w3.org/2000/svg">
<circle cx="49.3547" cy="50.6455" r="39.3549" fill="url(#paint0_linear_2336_35091)"/>
<circle cx="50.6454" cy="49.3549" r="38.7097" fill="url(#paint1_linear_2336_35091)" stroke="url(#paint2_linear_2336_35091)" stroke-width="1.29032"/>
<g filter="url(#filter0_f_2336_35091)">
<path d="M49.1018 60.4581C47.4319 60.4581 46.0549 59.1012 46.208 57.4384C46.2504 56.9784 46.3031 56.5346 46.3662 56.1069C46.5795 54.7844 47.0275 53.5047 47.71 52.2675C48.3286 51.0731 49.0644 50.1026 49.9176 49.356C50.7708 48.5882 51.688 47.8523 52.6692 47.1484C53.6503 46.4445 54.6208 45.5807 55.5807 44.5568C56.4339 43.597 56.9991 42.6372 57.2764 41.6773C57.5537 40.6962 57.6923 39.6617 57.6923 38.5739C57.6923 37.614 57.575 36.7502 57.3404 35.9823C57.1271 35.1931 56.7645 34.5212 56.2526 33.9666C55.4847 33.0068 54.5248 32.3456 53.373 31.983C52.2426 31.6204 51.0588 31.4391 49.8216 31.4391C48.6485 31.4391 47.5394 31.599 46.4942 31.919C45.4704 32.2389 44.6172 32.7402 43.9346 33.4227C43.2521 34.0413 42.7509 34.7985 42.4309 35.6944C42.4275 35.7036 42.4241 35.7129 42.4208 35.7222C41.8816 37.2145 40.6647 38.5419 39.078 38.5419C37.4134 38.5419 36.0707 37.1173 36.507 35.5109C36.7156 34.743 36.9838 33.9936 37.3118 33.2628C38.0796 31.5777 39.1355 30.1913 40.4792 29.1035C41.7377 28.037 43.1774 27.2585 44.7985 26.7679C46.4196 26.256 48.0513 26 49.6937 26C51.8693 26 53.9276 26.3306 55.8686 26.9918C57.8309 27.6531 59.4627 28.7515 60.7638 30.2873C61.7663 31.3751 62.5128 32.6229 63.0034 34.0306C63.494 35.4384 63.7393 36.9208 63.7393 38.4779C63.7393 40.3762 63.3553 42.1466 62.5875 43.789C61.8409 45.4314 60.8278 46.9138 59.548 48.2362C58.8441 49.0041 58.0762 49.708 57.2444 50.3479C56.4339 50.9877 55.6553 51.6276 54.9088 52.2675C54.1836 52.9074 53.6077 53.6113 53.1811 54.3792C52.6265 55.3817 52.3066 56.3095 52.2212 57.1627C52.2145 57.2508 52.208 57.3419 52.202 57.4359C52.0947 59.1023 50.7716 60.4581 49.1018 60.4581ZM49.1178 73C47.4568 73 46.1103 71.6535 46.1103 69.9925V69.0007C46.1103 67.3397 47.4568 65.9932 49.1178 65.9932C50.7788 65.9932 52.1253 67.3397 52.1253 69.0007V69.9925C52.1253 71.6535 50.7788 73 49.1178 73Z" fill="url(#paint3_linear_2336_35091)"/>
</g>
<g filter="url(#filter1_d_2336_35091)">
<path d="M50.1018 60.4581C48.4319 60.4581 47.0549 59.1012 47.208 57.4384C47.2504 56.9784 47.3031 56.5346 47.3662 56.1069C47.5795 54.7844 48.0275 53.5047 48.71 52.2675C49.3286 51.0731 50.0644 50.1026 50.9176 49.356C51.7708 48.5882 52.688 47.8523 53.6692 47.1484C54.6503 46.4445 55.6208 45.5807 56.5807 44.5568C57.4339 43.597 57.9991 42.6372 58.2764 41.6773C58.5537 40.6962 58.6923 39.6617 58.6923 38.5739C58.6923 37.614 58.575 36.7502 58.3404 35.9823C58.1271 35.1931 57.7645 34.5212 57.2526 33.9666C56.4847 33.0068 55.5248 32.3456 54.373 31.983C53.2426 31.6204 52.0588 31.4391 50.8216 31.4391C49.6485 31.4391 48.5394 31.599 47.4942 31.919C46.4704 32.2389 45.6172 32.7402 44.9346 33.4227C44.2521 34.0413 43.7509 34.7985 43.4309 35.6944C43.4275 35.7036 43.4241 35.7129 43.4208 35.7222C42.8816 37.2145 41.6647 38.5419 40.078 38.5419C38.4134 38.5419 37.0707 37.1173 37.507 35.5109C37.7156 34.743 37.9838 33.9936 38.3118 33.2628C39.0796 31.5777 40.1355 30.1913 41.4792 29.1035C42.7377 28.037 44.1774 27.2585 45.7985 26.7679C47.4196 26.256 49.0513 26 50.6937 26C52.8693 26 54.9276 26.3306 56.8686 26.9918C58.8309 27.6531 60.4627 28.7515 61.7638 30.2873C62.7663 31.3751 63.5128 32.6229 64.0034 34.0306C64.494 35.4384 64.7393 36.9208 64.7393 38.4779C64.7393 40.3762 64.3553 42.1466 63.5875 43.789C62.8409 45.4314 61.8278 46.9138 60.548 48.2362C59.8441 49.0041 59.0762 49.708 58.2444 50.3479C57.4339 50.9877 56.6553 51.6276 55.9088 52.2675C55.1836 52.9074 54.6077 53.6113 54.1811 54.3792C53.6265 55.3817 53.3066 56.3095 53.2212 57.1627C53.2145 57.2508 53.208 57.3419 53.202 57.4359C53.0947 59.1023 51.7716 60.4581 50.1018 60.4581ZM50.1178 73C48.4568 73 47.1103 71.6535 47.1103 69.9925V69.0007C47.1103 67.3397 48.4568 65.9932 50.1178 65.9932C51.7788 65.9932 53.1253 67.3397 53.1253 69.0007V69.9925C53.1253 71.6535 51.7788 73 50.1178 73Z" fill="white"/>
</g>
<defs>
<filter id="filter0_f_2336_35091" x="24.4238" y="14" width="51.3155" height="71" filterUnits="userSpaceOnUse" color-interpolation-filters="sRGB">
<feFlood flood-opacity="0" result="BackgroundImageFix"/>
<feBlend mode="normal" in="SourceGraphic" in2="BackgroundImageFix" result="shape"/>
<feGaussianBlur stdDeviation="6" result="effect1_foregroundBlur_2336_35091"/>
</filter>
<filter id="filter1_d_2336_35091" x="34.198" y="25.3548" width="33.7671" height="53.4516" filterUnits="userSpaceOnUse" color-interpolation-filters="sRGB">
<feFlood flood-opacity="0" result="BackgroundImageFix"/>
<feColorMatrix in="SourceAlpha" type="matrix" values="0 0 0 0 0 0 0 0 0 0 0 0 0 0 0 0 0 0 127 0" result="hardAlpha"/>
<feOffset dy="2.58065"/>
<feGaussianBlur stdDeviation="1.6129"/>
<feComposite in2="hardAlpha" operator="out"/>
<feColorMatrix type="matrix" values="0 0 0 0 0.819608 0 0 0 0 0.360784 0 0 0 0 0 0 0 0 0.5 0"/>
<feBlend mode="normal" in2="BackgroundImageFix" result="effect1_dropShadow_2336_35091"/>
<feBlend mode="normal" in="SourceGraphic" in2="effect1_dropShadow_2336_35091" result="shape"/>
</filter>
<linearGradient id="paint0_linear_2336_35091" x1="49.3547" y1="11.2907" x2="49.3547" y2="90.0004" gradientUnits="userSpaceOnUse">
<stop stop-color="white"/>
<stop offset="1" stop-color="#FE7A11"/>
</linearGradient>
<linearGradient id="paint1_linear_2336_35091" x1="7.05262" y1="10" x2="100.657" y2="29.2901" gradientUnits="userSpaceOnUse">
<stop stop-color="#FF9E51"/>
<stop offset="1" stop-color="#FE7A11"/>
</linearGradient>
<linearGradient id="paint2_linear_2336_35091" x1="11.2905" y1="54.5162" x2="52.2583" y2="51.9355" gradientUnits="userSpaceOnUse">
<stop stop-color="#FCFCFC" stop-opacity="0.53"/>
<stop offset="1" stop-color="white" stop-opacity="0"/>
</linearGradient>
<linearGradient id="paint3_linear_2336_35091" x1="49.8696" y1="26" x2="50" y2="90" gradientUnits="userSpaceOnUse">
<stop stop-color="white" stop-opacity="0"/>
<stop offset="1" stop-color="#C95A01"/>
</linearGradient>
</defs>
</svg>
