<svg width="80" height="80" viewBox="0 0 80 80" fill="none" xmlns="http://www.w3.org/2000/svg">
<circle cx="39.3549" cy="40.6455" r="39.3549" fill="url(#paint0_linear_2430_1234)"/>
<circle cx="40.6455" cy="39.3549" r="38.7097" fill="url(#paint1_linear_2430_1234)" stroke="url(#paint2_linear_2430_1234)" stroke-width="1.29032"/>
<path d="M39.5001 22.75C29.1689 22.75 20.7501 31.1687 20.7501 41.5C20.7501 51.8313 29.1689 60.25 39.5001 60.25C49.8314 60.25 58.2501 51.8313 58.2501 41.5C58.2501 31.1687 49.8314 22.75 39.5001 22.75ZM47.6564 48.1937C47.3939 48.6437 46.9251 48.8875 46.4376 48.8875C46.1939 48.8875 45.9501 48.8312 45.7251 48.6812L39.9126 45.2125C38.4689 44.35 37.4001 42.4562 37.4001 40.7875V33.1C37.4001 32.3313 38.0376 31.6938 38.8064 31.6938C39.5751 31.6938 40.2126 32.3313 40.2126 33.1V40.7875C40.2126 41.4625 40.7751 42.4562 41.3564 42.7937L47.1689 46.2625C47.8439 46.6562 48.0689 47.5187 47.6564 48.1937Z" fill="url(#paint3_linear_2430_1234)"/>
<path d="M40.5001 21.75C30.1689 21.75 21.7501 30.1687 21.7501 40.5C21.7501 50.8313 30.1689 59.25 40.5001 59.25C50.8314 59.25 59.2501 50.8313 59.2501 40.5C59.2501 30.1687 50.8314 21.75 40.5001 21.75ZM48.6564 47.1937C48.3939 47.6437 47.9251 47.8875 47.4376 47.8875C47.1939 47.8875 46.9501 47.8312 46.7251 47.6812L40.9126 44.2125C39.4689 43.35 38.4001 41.4562 38.4001 39.7875V32.1C38.4001 31.3313 39.0376 30.6938 39.8064 30.6938C40.5751 30.6938 41.2126 31.3313 41.2126 32.1V39.7875C41.2126 40.4625 41.7751 41.4562 42.3564 41.7937L48.1689 45.2625C48.8439 45.6562 49.0689 46.5187 48.6564 47.1937Z" fill="white"/>
<defs>
<linearGradient id="paint0_linear_2430_1234" x1="39.3549" y1="1.29068" x2="39.3549" y2="80.0004" gradientUnits="userSpaceOnUse">
<stop stop-color="white"/>
<stop offset="1" stop-color="#FE7A11"/>
</linearGradient>
<linearGradient id="paint1_linear_2430_1234" x1="-2.94727" y1="2.17676e-07" x2="90.6567" y2="19.2901" gradientUnits="userSpaceOnUse">
<stop stop-color="#FF9E51"/>
<stop offset="1" stop-color="#FE7A11"/>
</linearGradient>
<linearGradient id="paint2_linear_2430_1234" x1="1.29065" y1="44.5162" x2="42.2584" y2="41.9355" gradientUnits="userSpaceOnUse">
<stop stop-color="#FCFCFC" stop-opacity="0.53"/>
<stop offset="1" stop-color="white" stop-opacity="0"/>
</linearGradient>
<linearGradient id="paint3_linear_2430_1234" x1="39.5001" y1="22.75" x2="39.5001" y2="60.25" gradientUnits="userSpaceOnUse">
<stop stop-color="white"/>
<stop offset="1" stop-color="#FE7A11"/>
</linearGradient>
</defs>
</svg>
