<svg width="80" height="80" viewBox="0 0 80 80" fill="none" xmlns="http://www.w3.org/2000/svg">
<circle cx="39.3549" cy="40.6455" r="39.3549" fill="url(#paint0_linear_2336_35076)"/>
<circle cx="40.6456" cy="39.3549" r="38.7097" fill="url(#paint1_linear_2336_35076)" stroke="url(#paint2_linear_2336_35076)" stroke-width="1.29032"/>
<g filter="url(#filter0_d_2336_35076)">
<path d="M37.8286 17.9171C39.5418 16.2039 42.3194 16.2039 44.0326 17.9171L44.1569 18.0414C45.6457 19.5302 45.6436 21.9462 44.1548 23.435C42.3708 25.219 39.4758 25.2215 37.6919 23.4375C36.2052 21.9509 36.2052 19.5405 37.6919 18.0539L37.8286 17.9171Z" fill="url(#paint3_linear_2336_35076)" shape-rendering="crispEdges"/>
</g>
<rect x="40.9698" y="14.8543" width="8.3188" height="8.01434" rx="4.00717" transform="rotate(45 40.9698 14.8543)" fill="white"/>
<g filter="url(#filter1_d_2336_35076)">
<path d="M41.126 60.0225C38.6997 60.0225 36.7328 58.0556 36.7328 55.6293V33.8153C36.7328 31.7098 38.4396 30.003 40.5451 30.003C43.0717 30.003 45.1199 32.0512 45.1199 34.5777V56.0287C45.1199 58.2344 43.3318 60.0225 41.126 60.0225Z" fill="url(#paint4_linear_2336_35076)" shape-rendering="crispEdges"/>
</g>
<rect x="36.7327" y="59.8191" width="29.8181" height="8.01434" rx="4.00717" transform="rotate(-90 36.7327 59.8191)" fill="white"/>
<defs>
<filter id="filter0_d_2336_35076" x="30.1253" y="12.7613" width="21.5988" height="21.0452" filterUnits="userSpaceOnUse" color-interpolation-filters="sRGB">
<feFlood flood-opacity="0" result="BackgroundImageFix"/>
<feColorMatrix in="SourceAlpha" type="matrix" values="0 0 0 0 0 0 0 0 0 0 0 0 0 0 0 0 0 0 127 0" result="hardAlpha"/>
<feOffset dy="2.58065"/>
<feGaussianBlur stdDeviation="3.22581"/>
<feComposite in2="hardAlpha" operator="out"/>
<feColorMatrix type="matrix" values="0 0 0 0 0 0 0 0 0 0.119786 0 0 0 0 0.584323 0 0 0 1 0"/>
<feBlend mode="normal" in2="BackgroundImageFix" result="effect1_dropShadow_2336_35076"/>
<feBlend mode="normal" in="SourceGraphic" in2="effect1_dropShadow_2336_35076" result="shape"/>
</filter>
<filter id="filter1_d_2336_35076" x="33.507" y="29.3578" width="14.8387" height="36.4712" filterUnits="userSpaceOnUse" color-interpolation-filters="sRGB">
<feFlood flood-opacity="0" result="BackgroundImageFix"/>
<feColorMatrix in="SourceAlpha" type="matrix" values="0 0 0 0 0 0 0 0 0 0 0 0 0 0 0 0 0 0 127 0" result="hardAlpha"/>
<feOffset dy="2.58065"/>
<feGaussianBlur stdDeviation="1.6129"/>
<feComposite in2="hardAlpha" operator="out"/>
<feColorMatrix type="matrix" values="0 0 0 0 0 0 0 0 0 0.121569 0 0 0 0 0.584314 0 0 0 0.5 0"/>
<feBlend mode="normal" in2="BackgroundImageFix" result="effect1_dropShadow_2336_35076"/>
<feBlend mode="normal" in="SourceGraphic" in2="effect1_dropShadow_2336_35076" result="shape"/>
</filter>
<linearGradient id="paint0_linear_2336_35076" x1="39.3549" y1="1.29068" x2="39.3549" y2="80.0004" gradientUnits="userSpaceOnUse">
<stop stop-color="white"/>
<stop offset="1" stop-color="#0023B0"/>
</linearGradient>
<linearGradient id="paint1_linear_2336_35076" x1="-2.94721" y1="2.17676e-07" x2="90.6567" y2="19.2901" gradientUnits="userSpaceOnUse">
<stop stop-color="#0084FF"/>
<stop offset="1" stop-color="#0060B4"/>
</linearGradient>
<linearGradient id="paint2_linear_2336_35076" x1="1.29071" y1="44.5162" x2="42.2585" y2="41.9355" gradientUnits="userSpaceOnUse">
<stop stop-color="#FCFCFC" stop-opacity="0.53"/>
<stop offset="1" stop-color="white" stop-opacity="0"/>
</linearGradient>
<linearGradient id="paint3_linear_2336_35076" x1="43.8916" y1="17.7761" x2="37.961" y2="23.7067" gradientUnits="userSpaceOnUse">
<stop stop-color="white" stop-opacity="0"/>
<stop offset="1" stop-color="#536FDD"/>
</linearGradient>
<linearGradient id="paint4_linear_2336_35076" x1="36.7328" y1="45.0127" x2="45.1199" y2="45.0127" gradientUnits="userSpaceOnUse">
<stop stop-color="white" stop-opacity="0"/>
<stop offset="1" stop-color="#536FDD"/>
</linearGradient>
</defs>
</svg>
