<svg width="80" height="80" viewBox="0 0 80 80" fill="none" xmlns="http://www.w3.org/2000/svg">
<circle cx="39.3555" cy="40.6445" r="39.3555" fill="url(#paint0_linear_2336_35052)"/>
<circle cx="40.6462" cy="39.3555" r="38.7444" fill="url(#paint1_linear_2336_35052)" stroke="url(#paint2_linear_2336_35052)" stroke-width="1.22207"/>
<g filter="url(#filter0_d_2336_35052)">
<path d="M58.9578 26.9744C57.2421 25.2587 54.4604 25.2587 52.7447 26.9744L33.4557 46.2634C31.9669 47.7522 31.9669 50.1661 33.4557 51.6549C35.2423 53.4415 38.139 53.4415 39.9256 51.6549L58.9578 32.6226C60.5175 31.0629 60.5175 28.5341 58.9578 26.9744Z" fill="white"/>
</g>
<rect width="35.2463" height="8.01446" rx="4.00723" transform="matrix(-0.707107 0.707107 0.707107 0.707107 55.682 24.0331)" fill="white"/>
<g filter="url(#filter1_d_2336_35052)">
<path d="M22.1783 34.7186C23.8939 33.0029 26.6756 33.0029 28.3913 34.7186L39.6777 46.005C41.1666 47.4938 41.1666 49.9077 39.6777 51.3965C37.8911 53.1831 34.9945 53.1831 33.2079 51.3965L22.1783 40.3669C20.6185 38.8071 20.6185 36.2783 22.1783 34.7186Z" fill="white"/>
</g>
<rect x="25.4006" y="31.7293" width="24.0049" height="8.01446" rx="4.00723" transform="rotate(45 25.4006 31.7293)" fill="white"/>
<defs>
<filter id="filter0_d_2336_35052" x="26.2288" y="22.0214" width="40.0092" height="39.5279" filterUnits="userSpaceOnUse" color-interpolation-filters="sRGB">
<feFlood flood-opacity="0" result="BackgroundImageFix"/>
<feColorMatrix in="SourceAlpha" type="matrix" values="0 0 0 0 0 0 0 0 0 0 0 0 0 0 0 0 0 0 127 0" result="hardAlpha"/>
<feOffset dy="2.44414"/>
<feGaussianBlur stdDeviation="3.05518"/>
<feComposite in2="hardAlpha" operator="out"/>
<feColorMatrix type="matrix" values="0 0 0 0 0.113725 0 0 0 0 0.560784 0 0 0 0 0 0 0 0 1 0"/>
<feBlend mode="normal" in2="BackgroundImageFix" result="effect1_dropShadow_2336_35052"/>
<feBlend mode="normal" in="SourceGraphic" in2="effect1_dropShadow_2336_35052" result="shape"/>
</filter>
<filter id="filter1_d_2336_35052" x="17.9533" y="32.8208" width="25.8962" height="25.415" filterUnits="userSpaceOnUse" color-interpolation-filters="sRGB">
<feFlood flood-opacity="0" result="BackgroundImageFix"/>
<feColorMatrix in="SourceAlpha" type="matrix" values="0 0 0 0 0 0 0 0 0 0 0 0 0 0 0 0 0 0 127 0" result="hardAlpha"/>
<feOffset dy="2.44414"/>
<feGaussianBlur stdDeviation="1.52759"/>
<feComposite in2="hardAlpha" operator="out"/>
<feColorMatrix type="matrix" values="0 0 0 0 0.112344 0 0 0 0 0.561719 0 0 0 0 0 0 0 0 0.5 0"/>
<feBlend mode="normal" in2="BackgroundImageFix" result="effect1_dropShadow_2336_35052"/>
<feBlend mode="normal" in="SourceGraphic" in2="effect1_dropShadow_2336_35052" result="shape"/>
</filter>
<linearGradient id="paint0_linear_2336_35052" x1="4.41171" y1="7.84831" x2="94.4835" y2="57.6334" gradientUnits="userSpaceOnUse">
<stop stop-color="#08A72C"/>
<stop offset="1" stop-color="#003623"/>
</linearGradient>
<linearGradient id="paint1_linear_2336_35052" x1="5.70239" y1="6.55924" x2="95.7742" y2="56.3444" gradientUnits="userSpaceOnUse">
<stop stop-color="#16A34A"/>
<stop offset="1" stop-color="#006525"/>
</linearGradient>
<linearGradient id="paint2_linear_2336_35052" x1="1.29074" y1="44.5168" x2="42.2591" y2="41.9361" gradientUnits="userSpaceOnUse">
<stop stop-color="#FCFCFC" stop-opacity="0.3"/>
<stop offset="1" stop-color="#FF5A2F" stop-opacity="0"/>
</linearGradient>
</defs>
</svg>
